<?xml version="1.0" encoding="utf-8"?>
<!-- Generator: Adobe Illustrator 24.0.3, SVG Export Plug-In . SVG Version: 6.00 Build 0)  -->
<svg version="1.1" id="Layer_1" xmlns="http://www.w3.org/2000/svg" xmlns:xlink="http://www.w3.org/1999/xlink" x="0px" y="0px"
	 viewBox="0 0 508.4 507.5" style="enable-background:new 0 0 508.4 507.5;" xml:space="preserve">
<style type="text/css">
	.st0{fill:none;}
	.st1{fill:#E6E7E8;}
</style>
<path class="st0" d="M252.1,392.1c-12.3-1.1-24.2,4.8-36.7,11c-5.9,2.9-11.9,5.9-18.2,8.3l56.8,56.8l52.9-52.9
	c-9.7-2.3-18.3-7.2-26.7-11.9C270.8,398,261.8,392.9,252.1,392.1z"/>
<path class="st0" d="M103.3,274.2c7.3,1.4,14.4,3.5,21.3,5.5c12.2,3.6,23.6,7,35.2,6.2c11.5-0.9,22.3-6,33.7-11.3
	c14.6-6.9,29.8-14,47.3-12.5c13.7,1.1,25.2,7.3,36.3,13.2c10.4,5.6,20.3,10.9,31,11.3c12,0.5,23.3-5,35.3-10.8
	c4.8-2.3,9.8-4.8,14.9-6.8c29.3-11.8,64.4-10.5,93,2.1l17.5-17.5L254.1,38.7L39.4,253.4l25,25C75.4,273.4,90.1,271.7,103.3,274.2z"
	/>
<path class="st1" d="M254.1,7.5L8.2,253.4l56.1,56.1l4.3-7.1c0.5-0.8,1.3-1.6,2.3-2.4c1.8-1.3,4.3-2.4,7.3-3.3
	c6.4-1.9,14-2.2,20.7-1c6.1,1.2,12.3,3,18.9,5c13.6,4.1,27.7,8.3,43.5,7c15.7-1.2,28.9-7.4,41.8-13.4c12.5-5.8,24.3-11.4,35.7-10.4
	c9,0.7,17.9,5.5,27.4,10.6c11.7,6.2,24.9,13.3,40.8,14c17.8,0.8,33-6.6,46.4-13.2c4.6-2.3,9-4.4,13.4-6.2
	c21.1-8.5,47.2-8.6,70.1-0.1c5.1,1.9,9.8,4.1,13.9,6.5l4.3,2.5l44.7-44.7L254.1,7.5z M308.4,280.1c-9.2-0.4-18.5-5.3-28.2-10.6
	c-11.7-6.3-23.8-12.7-38.8-14c-1.7-0.1-3.4-0.2-5.1-0.2c-17.1,0-32.1,7-45.5,13.3c-10.9,5.1-21.2,9.9-31.5,10.7
	c-10.3,0.8-21.2-2.5-33-6c-7-2.1-14.2-4.2-21.8-5.6c-12.8-2.4-26.9-1.3-38.5,3l-17.3-17.3L254.1,47.9l205.5,205.5l-9.8,9.8
	c-30-12-64.8-12.2-93.9-0.4c-5.3,2.1-10.4,4.6-15.3,7C329.4,275.3,318.8,280.4,308.4,280.1z"/>
<path class="st1" d="M425.7,313.2c-7-1.2-14.3-1.7-21.6-1.6c-15,0.2-29.3,3.1-42.2,8.7c-5,2.2-9.8,4.6-14.5,7
	c-10.5,5.4-20.4,10.6-29.9,10.1c-8.5-0.4-17.1-5.3-26.3-10.5c-10.6-6-22.6-12.8-37.1-14.1c-18.5-1.7-34.4,6.2-48.4,13.2
	c-10.2,5.1-19.9,9.9-29.4,10.6c-9.6,0.8-19.7-2.4-30.6-5.9c-6.7-2.1-13.5-4.3-20.8-5.7c-2.5-0.5-5.1-0.8-7.7-1
	c-7.5-0.6-15.3,0-22.4,1.9l-11.1,2.8l23.8,23.8l2.8-0.1c3.3-0.1,6.3,0.1,9.1,0.7c5.2,1,10.6,2.7,16.7,4.6l1.1,0.4
	c13,4.1,26.3,8.3,41.5,7.1c15-1.2,27.6-7.5,39.8-13.5c11.6-5.8,22.7-11.2,33.2-10.3c8.3,0.7,16.6,5.5,25.5,10.5
	c11.1,6.3,23.7,13.4,39.1,14.1c0.8,0,1.6,0.1,2.4,0.1c16.1,0,29.8-7.1,42.1-13.4c4.3-2.2,8.4-4.3,12.4-6.1c4.6-1.9,9.6-3.5,15-4.6
	c7.1-1.4,14.5-2,22-1.6l2.9,0.1l25.1-25.1L425.7,313.2z"/>
<path class="st1" d="M354.6,380.9c-2.5,1.2-4.9,2.5-7.3,3.7l0,0c-9.4,4.8-18.2,9.4-26.6,10c-1.1,0.1-2.2,0.1-3.3,0.1
	c-8.5-0.4-17.1-5.3-26.3-10.5c-10.6-6-22.6-12.8-37.1-14.1c-18.5-1.6-34.3,6.2-48.4,13.2c-7.8,3.9-15.1,7.5-22.3,9.4
	c-2.5,0.7-4.8,1.1-7.1,1.3c-3.4,0.3-7.1,0.1-11.4-0.7l-20.2-3.5l109.5,109.5l135.8-135.8L354.6,380.9z M294.9,418.2l-40.8,40.8
	l-45.4-45.4c3.3-1.5,6.5-3.1,9.6-4.7c11.6-5.8,22.7-11.2,33.2-10.3c8.3,0.7,16.6,5.5,25.5,10.5C282.5,412.1,288.4,415.5,294.9,418.2
	z"/>
<g>
	<path class="st1" d="M252.1,238c-35.3,0-64.1-28.7-64.1-64.1s28.7-64.1,64.1-64.1s64.1,28.7,64.1,64.1S287.5,238,252.1,238z
		 M252.1,132.2c-23,0-41.7,18.7-41.7,41.7s18.7,41.7,41.7,41.7s41.7-18.7,41.7-41.7S275.1,132.2,252.1,132.2z"/>
</g>
</svg>
