<?xml version="1.0" encoding="utf-8"?>
<!-- Generator: Adobe Illustrator 24.0.2, SVG Export Plug-In . SVG Version: 6.00 Build 0)  -->
<svg version="1.1" id="Layer_1" xmlns="http://www.w3.org/2000/svg" xmlns:xlink="http://www.w3.org/1999/xlink" x="0px" y="0px"
	 viewBox="0 0 1080 136.8" style="enable-background:new 0 0 1080 136.8;" xml:space="preserve">
<style type="text/css">
	.st0{fill:#FFFFFF;}
	.st1{fill:none;}
</style>
<path class="st0" d="M193,92.2h-1l-23.6-40.8v34h10.2v6.8H148v-6.8h13.6V51.6H148v-6.8h24.4l20.1,34.7l20.1-34.7h24.3v6.8h-13.5
	v33.8h13.5v6.8h-30.5v-6.8h10.2v-34L193,92.2z"/>
<path class="st0" d="M264,85.4h13.6v6.8h-33.9v-6.8h13.6V51.6h-13.6v-6.8h33.9v6.8H264V85.4z"/>
<path class="st0" d="M327.2,44.8c3.8,0,7.3,0.6,10.5,1.9c3.3,1.3,6.1,2.9,8.6,5.1c2.4,2.1,4.4,4.6,5.8,7.5c1.4,2.9,2.1,6,2.1,9.3
	c0,3.3-0.7,6.4-2.1,9.2c-1.4,2.9-3.4,5.4-5.8,7.5c-2.4,2.1-5.3,3.8-8.6,5.1c-3.3,1.3-6.8,1.9-10.5,1.9h-43v-6.8h13.6V51.6h-13.6
	v-6.8H327.2z M326.9,85.4c2.8,0,5.4-0.4,7.9-1.3c2.5-0.9,4.6-2.1,6.5-3.6c1.9-1.5,3.3-3.3,4.4-5.4c1.1-2,1.6-4.2,1.6-6.6
	c0-2.3-0.5-4.5-1.6-6.6c-1.1-2.1-2.5-3.9-4.4-5.4c-1.9-1.5-4-2.7-6.5-3.6c-2.5-0.9-5.1-1.3-7.9-1.3h-22.3v33.8H326.9z"/>
<path class="st0" d="M435.5,85.4L455,51.6h-12.7v-6.8h33.8v6.8h-13.3l-19.5,33.8h12.5v6.8h-37.3v-6.8h9.1l-12.5-21.7l-12.6,21.7h9.1
	v6.8h-37.3v-6.8H387l-19.5-33.8h-13.3v-6.8h33.9v6.8h-12.8l19.6,33.8L411.2,57l-3.1-5.4h-13.3v-6.8h33.8v6.8h-12.7L435.5,85.4z"/>
<path class="st0" d="M543.9,51.6h-40.7v13.5h33.9v6.8h-33.9v13.5h40.7v-6.7h6.7v13.5h-67.7v-6.8h13.6V51.6h-13.6v-6.8h67.7v13.5
	h-6.7V51.6z"/>
<path class="st0" d="M614.8,79.5c0,2.8-0.9,5.1-2.6,7c-1.7,1.8-3.9,3.3-6.7,4.4c-2.7,1.1-5.8,1.8-9.2,2.3c-3.4,0.4-6.8,0.6-10.1,0.6
	c-4.2,0-8.1-0.3-11.9-0.9c-3.7-0.6-7.1-1.4-10.1-2.4v1.8h-6.8V78.7h6.8v4.9c2.2,1.2,5.2,2.1,9.1,2.8c3.9,0.7,8.2,1.1,12.9,1.1
	c3.6,0,6.8-0.2,9.4-0.6c2.6-0.4,4.8-1,6.5-1.7c1.7-0.7,3-1.5,3.8-2.5c0.8-0.9,1.2-1.9,1.2-2.9c0-2-0.9-3.5-2.6-4.7
	c-1.7-1.1-4.2-1.8-7.3-2.1l-22.1-2.1c-1.2-0.1-2.7-0.4-4.5-0.8c-1.9-0.4-3.7-1-5.5-2c-1.8-0.9-3.3-2.2-4.6-3.9
	c-1.3-1.7-1.9-3.9-1.9-6.6c0-2.8,0.8-5.1,2.5-7c1.6-1.8,3.8-3.3,6.4-4.4c2.6-1.1,5.6-1.8,8.9-2.3c3.3-0.4,6.7-0.6,10-0.6
	c3.8,0,7.4,0.3,10.8,0.8c3.4,0.5,6.5,1.3,9.3,2.3v-1.6h6.7v13.5h-6.7v-4.9c-2.1-1.1-4.9-2-8.4-2.8c-3.5-0.7-7.4-1.1-11.7-1.1
	c-3.6,0-6.7,0.2-9.3,0.6c-2.6,0.4-4.7,1-6.3,1.7c-1.6,0.7-2.8,1.5-3.5,2.5c-0.7,0.9-1.1,1.9-1.1,2.9c0,2,0.9,3.5,2.7,4.7
	c1.8,1.1,4.2,1.8,7.3,2.1l22.1,2.1c1.2,0.1,2.7,0.4,4.6,0.8c1.9,0.4,3.7,1,5.5,2c1.8,0.9,3.3,2.2,4.6,3.9
	C614.1,74.6,614.8,76.8,614.8,79.5z"/>
<path class="st0" d="M687.7,58.3H681v-6.7h-23.7v33.8h13.6v6.8h-33.9v-6.8h13.6V51.6h-23.7v6.7H620V44.8h67.7V58.3z"/>
<path class="st0" d="M716.6,68.5c0,2.5,0.6,4.9,1.9,7.2c1.3,2.3,3,4.3,5.2,6c2.2,1.7,4.8,3.1,7.8,4.1c3,1,6.2,1.6,9.7,1.6
	c2.5,0,4.8-0.3,7-0.8c2.2-0.5,4.3-1.3,6.1-2.2c1.9-0.9,3.6-2,5-3.3c1.5-1.3,2.7-2.6,3.7-4.1l5.2,5.2c-1.4,1.8-3.1,3.4-5,4.8
	c-1.9,1.4-4.1,2.7-6.4,3.7c-2.3,1-4.8,1.8-7.5,2.4c-2.7,0.6-5.4,0.8-8.2,0.8c-4.4,0-8.6-0.7-12.5-2c-3.9-1.3-7.3-3.1-10.2-5.4
	c-2.9-2.3-5.2-5-6.9-8.1c-1.7-3.1-2.5-6.4-2.5-9.9c0-3.5,0.8-6.8,2.5-9.8c1.7-3.1,4-5.7,6.9-8.1c2.9-2.3,6.3-4.1,10.2-5.4
	c3.9-1.3,8.1-2,12.5-2c3.9,0,7.6,0.5,11.1,1.6c3.5,1,6.7,2.5,9.5,4.3v-4.2h6.7v13.5h-6.7v-0.1c-1.1-1.2-2.4-2.3-3.9-3.4
	c-1.4-1.1-3.1-2-4.8-2.7c-1.8-0.8-3.7-1.4-5.7-1.8c-2-0.4-4.1-0.6-6.3-0.6c-3.5,0-6.7,0.5-9.7,1.6c-3,1-5.6,2.4-7.8,4.1
	c-2.2,1.7-4,3.7-5.2,6C717.2,63.6,716.6,66,716.6,68.5z"/>
<path class="st0" d="M837.9,92.2c-2.6,0-5-0.5-7.3-1.4c-2.3-0.9-4.3-2.2-6-3.8l-8.3-8.3h-20.6v6.7h13.6v6.8h-33.9v-6.8H789V51.6
	h-13.6v-6.8h48.2c2.6,0,5,0.4,7.3,1.3c2.3,0.9,4.2,2.1,5.9,3.6c1.7,1.5,3,3.3,4,5.4c1,2.1,1.5,4.3,1.5,6.6c0,2.2-0.4,4.2-1.3,6.1
	c-0.8,1.9-2,3.7-3.5,5.1c-1.5,1.5-3.2,2.7-5.2,3.7c-2,1-4.2,1.6-6.5,1.8l3.7,3.7c1.1,1,2.4,1.8,3.9,2.3c1.5,0.6,3.1,0.8,4.8,0.8h7
	v6.8H837.9z M823.2,71.9c1.6,0,3.2-0.3,4.6-0.8c1.4-0.5,2.6-1.3,3.7-2.2c1-0.9,1.8-2,2.4-3.2c0.6-1.2,0.9-2.6,0.9-4
	c0-1.4-0.3-2.8-0.9-4c-0.6-1.2-1.4-2.3-2.4-3.2c-1-0.9-2.3-1.6-3.7-2.2c-1.4-0.5-2.9-0.8-4.6-0.8h-27.5v20.3H823.2z"/>
<path class="st0" d="M912.8,51.6h-40.7v13.5H906v6.8h-33.9v13.5h40.7v-6.7h6.7v13.5h-67.7v-6.8h13.6V51.6h-13.6v-6.8h67.7v13.5h-6.7
	V51.6z"/>
<path class="st0" d="M987.4,51.6h-40.7v13.5h33.9v6.8h-33.9v13.5h40.7v-6.7h6.7v13.5h-67.7v-6.8h13.6V51.6h-13.6v-6.8h67.7v13.5
	h-6.7V51.6z"/>
<path class="st0" d="M1073.5,85.4v6.8h-8.2h-0.2c-2.6,0-5.1-0.5-7.3-1.4c-2.3-0.9-4.2-2.2-5.9-3.8l-18.1-18.2l-12.6,7.2v9.3h13.6
	v6.8h-33.9v-6.8h13.6V51.6h-13.6v-6.8h33.9v6.8h-13.6v16.7l28.9-16.7h-8.5v-6.8h32v6.8h-9.8l-23.9,13.8l16.9,16.9
	c1.1,1,2.4,1.8,3.9,2.3c1.5,0.6,3.1,0.8,4.8,0.8H1073.5z"/>
<path class="st1" d="M66.9,103c-3-0.3-6,1.2-9.1,2.7c-1.5,0.7-2.9,1.5-4.5,2l14,14l13-13c-2.4-0.6-4.5-1.8-6.6-2.9
	C71.5,104.4,69.3,103.2,66.9,103z"/>
<path class="st1" d="M30.2,73.9c1.8,0.3,3.6,0.9,5.3,1.4c3,0.9,5.8,1.7,8.7,1.5c2.8-0.2,5.5-1.5,8.3-2.8c3.6-1.7,7.3-3.4,11.7-3.1
	c3.4,0.3,6.2,1.8,9,3.3c2.6,1.4,5,2.7,7.7,2.8c3,0.1,5.7-1.2,8.7-2.7c1.2-0.6,2.4-1.2,3.7-1.7c7.2-2.9,15.9-2.6,22.9,0.5l4.3-4.3
	l-53-53l-53,53l6.2,6.2C23.3,73.7,26.9,73.3,30.2,73.9z"/>
<path class="st0" d="M67.4,8.1L6.8,68.8l13.8,13.8l1.1-1.8c0.1-0.2,0.3-0.4,0.6-0.6c0.4-0.3,1.1-0.6,1.8-0.8
	c1.6-0.5,3.5-0.6,5.1-0.2c1.5,0.3,3,0.7,4.7,1.2c3.4,1,6.8,2,10.7,1.7c3.9-0.3,7.1-1.8,10.3-3.3c3.1-1.4,6-2.8,8.8-2.6
	c2.2,0.2,4.4,1.4,6.8,2.6c2.9,1.5,6.1,3.3,10.1,3.5c4.4,0.2,8.1-1.6,11.5-3.3c1.1-0.6,2.2-1.1,3.3-1.5c5.2-2.1,11.7-2.1,17.3,0
	c1.3,0.5,2.4,1,3.4,1.6l1.1,0.6l11-11L67.4,8.1z M80.8,75.3c-2.3-0.1-4.6-1.3-7-2.6c-2.9-1.5-5.9-3.1-9.6-3.4
	c-0.4,0-0.8-0.1-1.3-0.1c-4.2,0-7.9,1.7-11.2,3.3c-2.7,1.3-5.2,2.5-7.8,2.6c-2.6,0.2-5.2-0.6-8.1-1.5c-1.7-0.5-3.5-1-5.4-1.4
	C27.3,71.7,23.9,72,21,73l-4.3-4.3l50.7-50.7l50.7,50.7l-2.4,2.4c-7.4-3-16-3-23.2-0.1c-1.3,0.5-2.6,1.1-3.8,1.7
	C86,74.2,83.4,75.4,80.8,75.3z"/>
<path class="st0" d="M109.8,83.5c-1.7-0.3-3.5-0.4-5.3-0.4c-3.7,0.1-7.2,0.8-10.4,2.1c-1.2,0.5-2.4,1.1-3.6,1.7
	c-2.6,1.3-5,2.6-7.4,2.5c-2.1-0.1-4.2-1.3-6.5-2.6c-2.6-1.5-5.6-3.2-9.2-3.5c-4.6-0.4-8.5,1.5-11.9,3.3c-2.5,1.3-4.9,2.4-7.3,2.6
	c-2.4,0.2-4.9-0.6-7.6-1.4c-1.6-0.5-3.3-1.1-5.1-1.4c-0.6-0.1-1.3-0.2-1.9-0.3c-1.9-0.1-3.8,0-5.5,0.5l-2.7,0.7l5.9,5.9l0.7,0
	c0.8,0,1.6,0,2.2,0.2c1.3,0.3,2.6,0.7,4.1,1.1l0.3,0.1c3.2,1,6.5,2.1,10.2,1.7c3.7-0.3,6.8-1.8,9.8-3.3c2.9-1.4,5.6-2.8,8.2-2.5
	c2,0.2,4.1,1.3,6.3,2.6c2.7,1.6,5.9,3.3,9.6,3.5c0.2,0,0.4,0,0.6,0c4,0,7.4-1.7,10.4-3.3c1.1-0.6,2.1-1.1,3.1-1.5
	c1.1-0.5,2.4-0.9,3.7-1.1c1.7-0.4,3.6-0.5,5.4-0.4l0.7,0l6.2-6.2L109.8,83.5z"/>
<path class="st0" d="M92.2,100.2c-0.6,0.3-1.2,0.6-1.8,0.9l0,0c-2.3,1.2-4.5,2.3-6.6,2.5c-0.3,0-0.5,0-0.8,0
	c-2.1-0.1-4.2-1.3-6.5-2.6c-2.6-1.5-5.6-3.2-9.1-3.5c-4.6-0.4-8.5,1.5-11.9,3.3c-1.9,1-3.7,1.8-5.5,2.3c-0.6,0.2-1.2,0.3-1.8,0.3
	c-0.8,0.1-1.8,0-2.8-0.2l-5-0.9l27,27l33.5-33.5L92.2,100.2z M77.5,109.4l-10.1,10.1l-11.2-11.2c0.8-0.4,1.6-0.8,2.4-1.1
	c2.9-1.4,5.6-2.8,8.2-2.5c2,0.2,4.1,1.3,6.3,2.6C74.4,107.9,75.9,108.8,77.5,109.4z"/>
<g>
	<path class="st0" d="M66.9,65c-8.7,0-15.8-7.1-15.8-15.8s7.1-15.8,15.8-15.8s15.8,7.1,15.8,15.8S75.7,65,66.9,65z M66.9,38.9
		c-5.7,0-10.3,4.6-10.3,10.3s4.6,10.3,10.3,10.3s10.3-4.6,10.3-10.3S72.6,38.9,66.9,38.9z"/>
</g>
</svg>
